<svg xmlns="http://www.w3.org/2000/svg" viewBox="0 0 178.8 41" width="178.8" height="41">
  <g transform="translate(0, 0.5)">
    <path d="M33.724 36.5809C37.7426 32.5622 40.0003 27.1118 40.0003 21.4286C40.0003 15.7454 37.7426 10.2949 33.724 6.27629C29.7054 2.25765 24.2549 1.02188e-06 18.5717 0C12.8885 -1.02188e-06 7.43807 2.25764 3.41943 6.27628L10.4905 13.3473C11.6063 14.4631 13.4081 14.4074 14.8276 13.7181C15.9836 13.1568 17.2622 12.8571 18.5717 12.8571C20.845 12.8571 23.0252 13.7602 24.6326 15.3677C26.2401 16.9751 27.1431 19.1553 27.1431 21.4286C27.1431 22.7381 26.8435 24.0167 26.2822 25.1727C25.5929 26.5922 25.5372 28.394 26.6529 29.5098L33.724 36.5809Z" fill="#217ce7"/>
    <path d="M30 40H19.5098C17.9943 40 16.5408 39.398 15.4692 38.3263L1.67368 24.5308C0.60204 23.4592 0 22.0057 0 20.4902V10L30 40Z" fill="#5b9cea"/>
    <path d="M10.7143 39.9999H4.28571C1.91878 39.9999 0 38.0812 0 35.7142V29.2856L10.7143 39.9999Z" fill="#9ac2f3"/>
  </g>
  <g transform="translate(46, 7.7725)">
    <path fill="#ffffff" d="M19.65 25.45L19.65 25.45Q16.92 25.45 14.59 24.48Q12.27 23.50 10.53 21.75Q8.80 19.99 7.84 17.70Q6.88 15.41 6.88 12.78L6.88 12.78Q6.88 10.16 7.80 7.85Q8.73 5.54 10.43 3.79Q12.13 2.04 14.47 1.04Q16.82 0.04 19.65 0.04L19.65 0.04Q22.66 0.04 24.81 0.99Q26.97 1.93 28.61 3.89L28.61 3.89L25.15 6.90Q22.94 4.59 19.65 4.59L19.65 4.59Q17.30 4.59 15.57 5.71Q13.84 6.83 12.89 8.69Q11.95 10.54 11.95 12.78L11.95 12.78Q11.95 15.02 12.89 16.86Q13.84 18.70 15.59 19.80Q17.34 20.91 19.76 20.91L19.76 20.91Q21.54 20.91 22.91 20.31Q24.27 19.71 25.36 18.52L25.36 18.52L28.93 21.57Q27.53 23.25 25.20 24.35Q22.87 25.45 19.65 25.45ZM38.55 25.45L38.55 25.45Q35.75 25.45 33.55 24.16Q31.34 22.86 30.10 20.71Q28.86 18.56 28.86 15.93L28.86 15.93Q28.86 13.31 30.10 11.14Q31.34 8.97 33.55 7.67Q35.75 6.38 38.55 6.38L38.55 6.38Q41.39 6.38 43.57 7.67Q45.76 8.97 47.00 11.14Q48.25 13.31 48.25 15.93L48.25 15.93Q48.25 18.56 47.00 20.71Q45.76 22.86 43.57 24.16Q41.39 25.45 38.55 25.45ZM38.55 21.15L38.55 21.15Q40.05 21.15 41.18 20.43Q42.30 19.71 42.91 18.52Q43.52 17.34 43.52 15.93L43.52 15.93Q43.52 14.50 42.91 13.31Q42.30 12.12 41.18 11.40Q40.05 10.68 38.55 10.68L38.55 10.68Q37.05 10.68 35.93 11.40Q34.80 12.12 34.19 13.31Q33.58 14.50 33.58 15.93L33.58 15.93Q33.58 17.34 34.19 18.52Q34.80 19.71 35.93 20.43Q37.05 21.15 38.55 21.15ZM56.19 25.45L56.19 25.45Q51.61 25.45 48.63 22.27L48.63 22.27L51.82 19.36Q53.81 21.61 56.09 21.61L56.09 21.61Q57.31 21.61 57.96 21.06Q58.61 20.52 58.61 19.71L58.61 19.71Q58.61 19.23 58.38 18.88Q58.15 18.52 57.43 18.21Q56.72 17.89 55.28 17.58L55.28 17.58Q52.83 16.98 51.64 16.11Q50.45 15.23 50.07 14.15Q49.68 13.06 49.68 11.91L49.68 11.91Q49.68 9.53 51.48 7.94Q53.29 6.34 56.47 6.34L56.47 6.34Q58.68 6.34 60.25 7.01Q61.83 7.67 63.23 9.49L63.23 9.49L59.80 12.12Q59.13 11.07 58.31 10.61Q57.49 10.16 56.58 10.16L56.58 10.16Q55.60 10.16 54.95 10.54Q54.30 10.93 54.30 11.77L54.30 11.77Q54.30 12.22 54.72 12.66Q55.14 13.10 56.75 13.52L56.75 13.52Q59.41 14.18 60.81 15.08Q62.21 15.97 62.74 17.09Q63.26 18.21 63.26 19.57L63.26 19.57Q63.26 21.25 62.33 22.59Q61.41 23.91 59.81 24.68Q58.22 25.45 56.19 25.45ZM69.84 25L65.12 25L65.12 6.80L69.77 6.80L69.77 9.46Q71.21 6.38 75.34 6.38L75.34 6.38Q77.26 6.38 78.80 7.27Q80.34 8.16 81.25 9.81L81.25 9.81Q82.16 8.16 83.58 7.27Q85.00 6.38 87.41 6.38L87.41 6.38Q89.37 6.38 90.95 7.29Q92.52 8.20 93.43 9.88Q94.34 11.56 94.34 13.87L94.34 13.87L94.34 25L89.62 25L89.62 15.02Q89.62 12.64 88.60 11.58Q87.59 10.51 85.98 10.51L85.98 10.51Q84.33 10.51 83.30 11.45Q82.27 12.40 82.27 15.02L82.27 15.02L82.27 25L77.54 25L77.54 15.02Q77.54 12.64 76.46 11.58Q75.37 10.51 73.62 10.51L73.62 10.51Q72.12 10.51 70.98 11.58Q69.84 12.64 69.84 15.02L69.84 15.02L69.84 25ZM105.96 25.45L105.96 25.45Q103.16 25.45 100.96 24.16Q98.75 22.86 97.51 20.71Q96.27 18.56 96.27 15.93L96.27 15.93Q96.27 13.31 97.51 11.14Q98.75 8.97 100.96 7.67Q103.16 6.38 105.96 6.38L105.96 6.38Q108.80 6.38 110.98 7.67Q113.17 8.97 114.41 11.14Q115.66 13.31 115.66 15.93L115.66 15.93Q115.66 18.56 114.41 20.71Q113.17 22.86 110.98 24.16Q108.80 25.45 105.96 25.45ZM105.96 21.15L105.96 21.15Q107.47 21.15 108.59 20.43Q109.71 19.71 110.32 18.52Q110.93 17.34 110.93 15.93L110.93 15.93Q110.93 14.50 110.32 13.31Q109.71 12.12 108.59 11.40Q107.47 10.68 105.96 10.68L105.96 10.68Q104.46 10.68 103.34 11.40Q102.22 12.12 101.60 13.31Q100.99 14.50 100.99 15.93L100.99 15.93Q100.99 17.34 101.60 18.52Q102.22 19.71 103.34 20.43Q104.46 21.15 105.96 21.15ZM123.60 25.45L123.60 25.45Q119.02 25.45 116.04 22.27L116.04 22.27L119.23 19.36Q121.22 21.61 123.50 21.61L123.50 21.61Q124.72 21.61 125.37 21.06Q126.02 20.52 126.02 19.71L126.02 19.71Q126.02 19.23 125.79 18.88Q125.56 18.52 124.84 18.21Q124.13 17.89 122.69 17.58L122.69 17.58Q120.24 16.98 119.05 16.11Q117.86 15.23 117.48 14.15Q117.09 13.06 117.09 11.91L117.09 11.91Q117.09 9.53 118.89 7.94Q120.70 6.34 123.88 6.34L123.88 6.34Q126.09 6.34 127.66 7.01Q129.24 7.67 130.64 9.49L130.64 9.49L127.21 12.12Q126.54 11.07 125.72 10.61Q124.90 10.16 123.99 10.16L123.99 10.16Q123.01 10.16 122.36 10.54Q121.71 10.93 121.71 11.77L121.71 11.77Q121.71 12.22 122.13 12.66Q122.55 13.10 124.16 13.52L124.16 13.52Q126.82 14.18 128.22 15.08Q129.62 15.97 130.15 17.09Q130.67 18.21 130.67 19.57L130.67 19.57Q130.67 21.25 129.74 22.59Q128.82 23.91 127.22 24.68Q125.63 25.45 123.60 25.45Z"/>
  </g>
</svg>
