<svg xmlns="http://www.w3.org/2000/svg" viewBox="0 0 190 48" width="190" height="48">
  <g id="logomark" transform="translate(0, 0)">
    <svg viewBox="0 0 150 150" width="40" height="40">
      <path fill="#217ce7" d="m144 48.6c3.9-3.2-2.5-8.6-4.1-11.3 0.2-2.1-0.3-5.7-1.8-8.4-2.7-4.7-9.4-11.3-16.6-9.4l-1.1 0.5c-2.6-0.9-5-1.7-7.1-2.2-2.7-3.4-8.8-10.2-19.2-10.8-5.5-0.3-2.9 1-1 2 3.4 2 5.3 6 5.2 9.2-6.3 0.7-12.3 2.2-19.9 5.6-4.6-0.3-17.4-1.4-19.2-12.2-0.2-1.6-0.8-1.7-2.4 1.4-2.8 5.8 0.9 14.6 6.6 22l-3.2 4.4h-0.3l1.5-3.4c0.3-1.1-15.9 1.8-18.9 8v0.8c4.2-0.8 6.4-0.5 11.4 3.5-2.1 5.1-3.7 8.4-3.9 8.3l0.8-4.8c-1.2-0.4-16.4 6.4-15.4 12 4.1-1.4 7.4-1.4 10.9 1.9-0.8 1.9-2.4 8.8-3.1 8.8l0.4-5.5c-0.2-0.7-13 7.6-12.8 13.3 0 1.3 0.7-0.3 4.2-0.8 2.1-0.3 3.9 0 6.1 0.6 0.5 0.3-1.9 11.3-2.3 11.2v-5.7c0-2-0.2-1-2 0.2-2.8 2.1-9.2 7.7-8.6 12.1 0.2 0.9 2.9-2.3 6.3-1.8 0.9 0.2 1.9 0.8 2.9 1.8-0.1 2.3-1.7 10.7-2 10.6l0.2-7.1c-0.4-1-9.2 4.9-9 9.9 3.8-2.8 5.8-1.5 7.8 0.1-1.6 3-4.3 6.5-7.9 6.2-5.5-0.2-10-7.8-8.9-16.2 1.5-9.4 6.2-15.3 5-23.4-0.5-3.9-2.1-8.2-4.7-9.6-0.5-0.3 1.2 3.2 0.3 7.2-1.6 6.3-11.1 14.5-14.6 25.4-3.8 11.6-1.5 24.1 8.9 30.5 4.9 3.1 10.9 4.6 17.1 5.1 2.8 0.2 5.9 0 8.9-0.2 0-9 4.6-9.9 6.4-14.4 0.6-0.1 0.3 1.9-0.5 3.9-2 4.6-5.3 8.9-1.3 11.6 3 2.1 9.5 2.3 15 2.7 6 0.3 8.4 1.6 9.5 0.4l0.6-1.2 4.7 1.2c1.6 0.4 3 0.3 3.2-1.5 2.9 0.7 7.3 2.3 7.5-0.5 4.5 0.9 8.8 1.5 14.5 1.4 2.1 0 2.4-1 2.4-2.1 1.3 0.7 3.9 2.1 6.1 2.2 1.3 0.1 2-0.2 2-2.2 6.3-0.3 14.5 1.6 15.9 1.3 0.5 0 1.3-0.3 1.3-1.7l3.7 1.1c1.5 0.4 3.9 0.6 3.6-1.7 3.9 0.1 9 1.7 9.1-0.3 2.8 0.3 5.7 1.4 5.7-0.2 0.2-8.3-9.5-14-17.5-12l-0.4 0.1-0.1 0.1h-0.2l0.9-0.8c2.5-2.2 5.5-6.3 5.8-9.8 0.6-7.6-5.9-13.6-14.4-13.9 2.5 8.3 2.6 14.5 2.1 23.8 1.4 0.7 3.8 2.6 3.8 3.2-3.3-1.5-10-4.5-20-1.6 2.7-2.3 8.1-3.9 13.5-2.6 0.2-11.9-0.3-22.5-4.9-34.9-3.5-10.1 1-13.5 11.4-21.5 5.1-3.9 7.5-9.5 9.1-13 1.4 5.1 4.1 7.3 6.4-1.6m-64.2 78c2.6 2.1 2.4 7 2.2 8-1.5-0.4-5.2-3.4-6.6-5.9-1.8-2.9-0.2-5.4 4.4-2.1zm-5 8.2c-1.4-0.2-5.4-3.2-6.8-5.6-1.6-2.7-0.8-5.1 3-3.3 3.6 1.8 4.1 6.3 3.8 8.9zm-7.7 1.4c-1.9-0.7-10.6-5.6-8.4-8.7 1.7-2.4 7.3-1.8 8.3 4l0.1 4.7zm-14-9.7c1.4-1.9 7.4-7 16.4-6.7 3-2.2 5.2-7.3 4.1-13.1-1.1-5.5-4.6-10.9-10.6-10.9-5.5 0-10.5 4.3-13.4 7.5h-0.4c3-4.8 7.4-9.7 15-10.1 7.6-0.1 12.8 5.9 12.6 16.3-0.2 4.2-1.8 8.1-3.6 10.8 2.4 0.8 4.8 2 5.8 4-5.4-2.1-13-3.7-25.9 2.2zm30.7-3.8c1.2-1.2 4.8-3 10.6-2.9-1-8.6-5-20.5-8.2-30.6 0.8-1.5 8.9 12.4 11.2 26.5l0.1 4.6c2.2 0.3 6.6 2.5 7.5 4.4-5.2-2.6-10.4-4.6-21.2-2zm6.7 3.9c0.6-3 6.9-2.8 8.1 3.5 0.5 2 0.6 4.7 0 4.7-1.9-0.7-5.9-3.6-7.1-5-0.8-1-1-2-1-3.2zm16.6 7.5c-2.5-1.3-5.7-3.8-7.1-6.9-1.8-5.4 7.2-2.5 7.2 5.1 0 1.8 0.5 2.4-0.1 1.8zm10.6-9.9c3.4-0.9 6.4 2.6 6.5 7.5 0 2.1 0.3 2.6-0.7 1.9-1.5-0.4-4.3-2.7-6-4.1-1.8-1.9-2-4.4 0.2-5.3zm7.3 0.5c2.1-0.8 7 2.1 7.1 8.5-1.5 0.4-5.4-2.3-5.9-3.7-1.1-2.3-2-4.6-1.2-4.8zm9.1-1c2.5 0.1 5.6 3.1 6.4 6.9 0.6 3-2.5-0.5-3.9-1.5-2-1.8-4.8-5.3-2.5-5.4zm6.6 0.5c2.9 0.4 5.8 5.1 6 7.1 0.1 1.5-6-2.5-6.5-6-0.1-0.5-0.1-1.1 0.5-1.1zm-39-5.5c-0.5-0.1 5.3-10.1 7.9-19.5 2.2-7.6 2.6-14.5 3.1-14.4 1.1 3.9 1 10.9-2.2 20.9-3 7.4-7.4 12.9-8.8 13zm-24.2-71.6c1.2 1 2.9 2.2 4.5 3.1-2.9 5.9-4.5 2.3-4.5-3.1zm7 4.1 5.6 1.1c-2 6.2-4.6 6.8-5.6-1.1zm8.6 1.1 6.4-0.2c-0.9 5-3.4 11.5-6.4 0.2zm9.6-0.7 4.8-1.3c-0.4 3.5-2.3 7.4-4.8 1.3zm8.3-2.4 4.6-1.6c0.1 2.7-1.4 9.5-4.6 1.6zm7.2-2.9 5.8-2c-0.3 9.8-2.4 9.9-5.8 2zm-35.8-22c2.8-3.4 6.1-5.4 11.1-5.5 7.2 0 14.6 4.5 14.6 12.5s-5.1 14.6-15 14.6c-5.5 0-9-2.2-10.7-3.8-2.6-2.8-3.4-6-3.4-9 0-2.9 1.4-6.3 3.4-8.8zm44.7-7.8c4.9 0.7 12 7.2 11.9 14.4-0.5 6.3-5.5 7.7-9 6-2-0.7-3.9-2.2-4.8-3.6l0.2-0.1c6.1 1.9 8.1-6.9 3.7-9.9-2.5-1.8-6.5-2.1-7.9 2.5-1.4-5.2 1-9.6 5.9-9.3zm1.4 25.1h0.3-0.3zm-0.1 1.2c1.3-0.2 3.6-1.1 6.4-1.2 0.4 7.6-2.6 11.9-4.2 5.9-1-2.4-2-3.9-2.2-4.7zm11.4 9c-0.8 0-0.3-3.2-3.3-8.7l-0.4-1.5c2.4-0.1 4.6-0.3 6.9 0.2 0.7 2.8-1.9 10-3.2 10z"/>
      <path fill="#217ce7" d="m87.5 31.8c-4.1 0-6.3 2.8-6.1 7.2 0.2 3.5 2.6 7.4 7 7.4 3.5 0 6.2-2.3 6.4-5.8 0.1-4.4-2.9-8.8-7.3-8.8z"/>
    </svg>
  </g>
  <g id="logotype" transform="translate(48, -2) scale(0.85)">
    <svg data-logo="logo" xmlns="http://www.w3.org/2000/svg" viewBox="0 0 49.08000183105469 47.458984375" width="130" height="47.458984375">
      <g id="text" transform="translate(0.7177734375, 0)">
        <path fill="#ffffff" d="M1.33 36.41L1.33 36.41L0.24 36.17Q-0.26 36.12-0.58 35.54L-0.58 35.54Q-0.67 35.38-0.69 35.35Q-0.72 35.32-0.72 35.27Q-0.72 35.21-0.68 35.12Q-0.65 35.03-0.58 34.86Q-0.51 34.70-0.46 34.53L-0.46 34.53Q-0.10 33.32 5.54 23.11Q11.18 12.91 11.44 12.60Q11.71 12.28 11.83 12.13Q11.96 11.99 12.13 11.89Q12.29 11.78 12.36 11.75Q12.44 11.72 12.67 11.64Q12.90 11.56 13.15 11.48Q13.40 11.39 13.67 11.25Q13.95 11.10 14.05 11.04Q14.15 10.98 14.31 10.98Q14.48 10.98 14.62 11.13Q14.77 11.29 14.77 11.53L14.77 11.53L14.77 11.65Q14.68 11.97 10.31 19.75Q5.95 27.52 5.55 28.26L5.55 28.26Q6.89 27.73 9.48 25.64Q12.08 23.56 12.11 22.88Q12.13 22.19 12.58 21.88Q13.02 21.58 13.54 21.58Q14.06 21.58 14.43 21.93Q14.80 22.28 14.78 23.07Q14.77 23.87 13.89 25.09Q13.02 26.31 11.81 27.35L11.81 27.35Q9.19 29.57 7.45 30.29L7.45 30.29Q8.84 34.03 10.63 34.03L10.63 34.03Q11.60 33.90 13.02 32.45L13.02 32.45Q13.55 31.92 14.05 31.38Q14.54 30.84 14.65 30.74Q14.77 30.63 14.97 30.63L14.97 30.63Q15.30 30.63 15.36 31.13Q15.43 31.63 15.43 32.15Q15.43 32.68 15.33 32.89L15.33 32.89Q14.83 33.85 13.16 35.22Q11.48 36.60 9.98 36.60L9.98 36.60Q8.90 36.60 8.27 36.19Q7.64 35.78 7.28 35.50Q6.92 35.23 6.55 34.76Q6.17 34.29 5.92 33.98Q5.67 33.68 5.36 33.13Q5.04 32.58 4.90 32.35Q4.77 32.12 4.50 31.60Q4.24 31.08 4.20 31.03L4.20 31.03Q3.90 31.66 3.52 32.39Q3.14 33.13 2.84 33.76Q2.53 34.39 2.27 34.91Q2.02 35.44 1.85 35.78Q1.69 36.12 1.67 36.14L1.67 36.14Q1.56 36.41 1.33 36.41ZM19.11 41.67L19.11 41.67Q19.02 41.76 18.59 42.54Q18.15 43.31 17.65 44.11Q17.16 44.90 16.43 45.62Q15.71 46.34 15.22 46.40Q14.73 46.46 14.59 46.46L14.59 46.46Q13.02 46.46 13.02 44.87L13.02 44.87Q13.02 43.01 14.95 40.51L14.95 40.51Q15.69 39.57 16.80 38.49Q17.91 37.40 18.01 37.26Q18.12 37.11 20.58 32.46L20.58 32.46Q18.94 34.26 17.53 35.38Q16.13 36.50 14.83 36.63L14.83 36.63L14.71 36.63Q14.05 36.63 13.40 36.20Q12.75 35.76 12.75 34.67L12.75 34.67Q12.75 33.04 13.62 31.52L13.62 31.52Q13.93 30.99 14.69 29.73Q15.45 28.46 16.10 27.28L16.10 27.28Q16.71 26.34 17.36 25.10Q18.01 23.85 18.35 23.31Q18.70 22.77 19.00 22.77Q19.31 22.77 19.80 23.16Q20.29 23.54 20.29 24.07Q20.29 24.60 18.05 28.67Q15.81 32.74 15.81 33.30L15.81 33.30Q15.81 33.44 15.94 33.44L15.94 33.44Q16.41 33.44 17.99 32.13Q19.57 30.82 21.48 28.77L21.48 28.77Q23.62 26.50 24.83 24.62L24.83 24.62Q24.99 24.38 25.08 24.25Q25.17 24.12 25.32 23.91Q25.46 23.70 25.56 23.58Q25.65 23.46 25.78 23.29Q25.91 23.13 26.01 23.05Q26.11 22.96 26.23 22.88L26.23 22.88Q26.42 22.70 26.65 22.70Q26.88 22.70 27.35 22.81Q27.82 22.91 27.92 23.03Q28.01 23.15 28.11 23.25L28.11 23.25Q28.28 23.44 28.28 23.60Q28.28 23.76 28.15 24.03Q28.01 24.29 26.56 26.74L26.56 26.74Q22.29 33.95 20.68 37.26L20.68 37.26Q23.28 35.08 27.99 30.79L27.99 30.79Q28.18 30.63 28.37 30.63L28.37 30.63Q28.90 30.63 28.90 32.26L28.90 32.26Q28.90 32.74 28.73 32.89L28.73 32.89Q23.62 36.82 19.11 41.67ZM41.75 10.35Q42.57 10.35 43.19 10.84Q43.82 11.32 43.82 12.28Q43.82 13.24 42.76 15.28Q41.70 17.32 40.21 19.45Q38.73 21.58 36.85 23.97L36.85 23.97Q33.87 27.76 31.14 30.79L31.14 30.79Q31.12 30.99 30.99 31.55Q30.86 32.10 30.86 32.67Q30.86 33.23 31.39 33.68Q31.91 34.14 32.68 34.14Q33.44 34.14 34.32 33.59Q35.21 33.04 35.85 32.38L35.85 32.38Q37.56 30.62 37.97 30.62Q38.38 30.62 38.38 31.86L38.38 31.86L38.38 32.21Q38.38 32.87 38.14 33.18L38.14 33.18Q36.71 34.94 34.91 35.80Q33.12 36.67 31.51 36.67Q29.91 36.67 29.07 35.68Q28.23 34.70 28.23 32.99L28.23 32.99Q28.23 29.66 30.02 25.16Q31.80 20.65 34.04 17.49L34.04 17.49Q39.08 10.35 41.75 10.35L41.75 10.35ZM40.98 13.19L40.98 13.19Q40.98 12.93 40.81 12.93L40.81 12.93Q40.21 12.93 37.67 16.35Q35.12 19.76 33.98 21.80Q32.85 23.83 31.84 26.91L31.84 26.91Q33.85 24.52 37.42 19.45Q40.98 14.38 40.98 13.19ZM48.36 23.22L48.36 23.22Q48.36 24.34 47.45 25.20Q46.54 26.05 45.37 26.05L45.37 26.05Q45.00 26.05 44.88 25.87Q44.76 25.69 44.76 25.40Q44.76 25.11 44.83 24.84L44.83 24.84Q44.21 25.05 43.46 25.47Q42.71 25.90 41.61 26.74Q40.52 27.57 40.52 27.98L40.52 27.98Q40.52 28.12 40.92 28.12Q41.32 28.12 42.16 27.84Q43.00 27.56 43.33 27.56Q43.66 27.56 43.77 27.59L43.77 27.59Q43.99 27.71 44.25 28.11Q44.50 28.51 44.50 28.75Q44.50 28.98 44.06 29.35Q43.61 29.73 43.05 29.92Q42.49 30.12 42.30 30.22L42.30 30.22Q38.69 32.24 38.69 32.99L38.69 32.99Q38.69 34.33 40.96 34.33L40.96 34.33Q42.42 34.33 43.89 33.40L43.89 33.40Q45.13 32.62 46.13 31.80Q47.13 30.99 47.40 30.80Q47.66 30.62 47.80 30.62L47.80 30.62Q48.24 30.62 48.24 31.61Q48.24 32.60 48.13 32.92Q48.01 33.23 47.44 33.69L47.44 33.69Q43.78 36.67 40.52 36.67L40.52 36.67Q38.78 36.67 37.73 36.19L37.73 36.19Q35.82 35.32 35.82 33.52L35.82 33.52Q35.82 31.16 39.08 29.95L39.08 29.95Q38.44 29.66 38.25 29.21Q38.06 28.75 38.06 27.75Q38.06 26.75 38.99 25.64Q39.92 24.52 41.27 23.80L41.27 23.80Q44.28 22.17 46.64 22.17L46.64 22.17Q47.20 22.17 47.78 22.45Q48.36 22.72 48.36 23.22Z"/>
      </g>
    </svg>
  </g>
</svg>
