<svg xmlns="http://www.w3.org/2000/svg" viewBox="0 0 150 150">
<!-- SVG created with Arrow, by QuiverAI (https://quiver.ai) -->
  <style type="text/css">.cls-0 {fill:#2563EB;}</style>
  <path class="cls-0" d="m144 48.6c3.9-3.2-2.5-8.6-4.1-11.3 0.2-2.1-0.3-5.7-1.8-8.4-2.7-4.7-9.4-11.3-16.6-9.4l-1.1 0.5c-2.6-0.9-5-1.7-7.1-2.2-2.7-3.4-8.8-10.2-19.2-10.8-5.5-0.3-2.9 1-1 2 3.4 2 5.3 6 5.2 9.2-6.3 0.7-12.3 2.2-19.9 5.6-4.6-0.3-17.4-1.4-19.2-12.2-0.2-1.6-0.8-1.7-2.4 1.4-2.8 5.8 0.9 14.6 6.6 22l-3.2 4.4h-0.3l1.5-3.4c0.3-1.1-15.9 1.8-18.9 8v0.8c4.2-0.8 6.4-0.5 11.4 3.5-2.1 5.1-3.7 8.4-3.9 8.3l0.8-4.8c-1.2-0.4-16.4 6.4-15.4 12 4.1-1.4 7.4-1.4 10.9 1.9-0.8 1.9-2.4 8.8-3.1 8.8l0.4-5.5c-0.2-0.7-13 7.6-12.8 13.3 0 1.3 0.7-0.3 4.2-0.8 2.1-0.3 3.9 0 6.1 0.6 0.5 0.3-1.9 11.3-2.3 11.2v-5.7c0-2-0.2-1-2 0.2-2.8 2.1-9.2 7.7-8.6 12.1 0.2 0.9 2.9-2.3 6.3-1.8 0.9 0.2 1.9 0.8 2.9 1.8-0.1 2.3-1.7 10.7-2 10.6l0.2-7.1c-0.4-1-9.2 4.9-9 9.9 3.8-2.8 5.8-1.5 7.8 0.1-1.6 3-4.3 6.5-7.9 6.2-5.5-0.2-10-7.8-8.9-16.2 1.5-9.4 6.2-15.3 5-23.4-0.5-3.9-2.1-8.2-4.7-9.6-0.5-0.3 1.2 3.2 0.3 7.2-1.6 6.3-11.1 14.5-14.6 25.4-3.8 11.6-1.5 24.1 8.9 30.5 4.9 3.1 10.9 4.6 17.1 5.1 2.8 0.2 5.9 0 8.9-0.2 0-9 4.6-9.9 6.4-14.4 0.6-0.1 0.3 1.9-0.5 3.9-2 4.6-5.3 8.9-1.3 11.6 3 2.1 9.5 2.3 15 2.7 6 0.3 8.4 1.6 9.5 0.4l0.6-1.2 4.7 1.2c1.6 0.4 3 0.3 3.2-1.5 2.9 0.7 7.3 2.3 7.5-0.5 4.5 0.9 8.8 1.5 14.5 1.4 2.1 0 2.4-1 2.4-2.1 1.3 0.7 3.9 2.1 6.1 2.2 1.3 0.1 2-0.2 2-2.2 6.3-0.3 14.5 1.6 15.9 1.3 0.5 0 1.3-0.3 1.3-1.7l3.7 1.1c1.5 0.4 3.9 0.6 3.6-1.7 3.9 0.1 9 1.7 9.1-0.3 2.8 0.3 5.7 1.4 5.7-0.2 0.2-8.3-9.5-14-17.5-12l-0.4 0.1-0.1 0.1h-0.2l0.9-0.8c2.5-2.2 5.5-6.3 5.8-9.8 0.6-7.6-5.9-13.6-14.4-13.9 2.5 8.3 2.6 14.5 2.1 23.8 1.4 0.7 3.8 2.6 3.8 3.2-3.3-1.5-10-4.5-20-1.6 2.7-2.3 8.1-3.9 13.5-2.6 0.2-11.9-0.3-22.5-4.9-34.9-3.5-10.1 1-13.5 11.4-21.5 5.1-3.9 7.5-9.5 9.1-13 1.4 5.1 4.1 7.3 6.4-1.6m-64.2 78c2.6 2.1 2.4 7 2.2 8-1.5-0.4-5.2-3.4-6.6-5.9-1.8-2.9-0.2-5.4 4.4-2.1zm-5 8.2c-1.4-0.2-5.4-3.2-6.8-5.6-1.6-2.7-0.8-5.1 3-3.3 3.6 1.8 4.1 6.3 3.8 8.9zm-7.7 1.4c-1.9-0.7-10.6-5.6-8.4-8.7 1.7-2.4 7.3-1.8 8.3 4l0.1 4.7zm-14-9.7c1.4-1.9 7.4-7 16.4-6.7 3-2.2 5.2-7.3 4.1-13.1-1.1-5.5-4.6-10.9-10.6-10.9-5.5 0-10.5 4.3-13.4 7.5h-0.4c3-4.8 7.4-9.7 15-10.1 7.6-0.1 12.8 5.9 12.6 16.3-0.2 4.2-1.8 8.1-3.6 10.8 2.4 0.8 4.8 2 5.8 4-5.4-2.1-13-3.7-25.9 2.2zm30.7-3.8c1.2-1.2 4.8-3 10.6-2.9-1-8.6-5-20.5-8.2-30.6 0.8-1.5 8.9 12.4 11.2 26.5l0.1 4.6c2.2 0.3 6.6 2.5 7.5 4.4-5.2-2.6-10.4-4.6-21.2-2zm6.7 3.9c0.6-3 6.9-2.8 8.1 3.5 0.5 2 0.6 4.7 0 4.7-1.9-0.7-5.9-3.6-7.1-5-0.8-1-1-2-1-3.2zm16.6 7.5c-2.5-1.3-5.7-3.8-7.1-6.9-1.8-5.4 7.2-2.5 7.2 5.1 0 1.8 0.5 2.4-0.1 1.8zm10.6-9.9c3.4-0.9 6.4 2.6 6.5 7.5 0 2.1 0.3 2.6-0.7 1.9-1.5-0.4-4.3-2.7-6-4.1-1.8-1.9-2-4.4 0.2-5.3zm7.3 0.5c2.1-0.8 7 2.1 7.1 8.5-1.5 0.4-5.4-2.3-5.9-3.7-1.1-2.3-2-4.6-1.2-4.8zm9.1-1c2.5 0.1 5.6 3.1 6.4 6.9 0.6 3-2.5-0.5-3.9-1.5-2-1.8-4.8-5.3-2.5-5.4zm6.6 0.5c2.9 0.4 5.8 5.1 6 7.1 0.1 1.5-6-2.5-6.5-6-0.1-0.5-0.1-1.1 0.5-1.1zm-39-5.5c-0.5-0.1 5.3-10.1 7.9-19.5 2.2-7.6 2.6-14.5 3.1-14.4 1.1 3.9 1 10.9-2.2 20.9-3 7.4-7.4 12.9-8.8 13zm-24.2-71.6c1.2 1 2.9 2.2 4.5 3.1-2.9 5.9-4.5 2.3-4.5-3.1zm7 4.1 5.6 1.1c-2 6.2-4.6 6.8-5.6-1.1zm8.6 1.1 6.4-0.2c-0.9 5-3.4 11.5-6.4 0.2zm9.6-0.7 4.8-1.3c-0.4 3.5-2.3 7.4-4.8 1.3zm8.3-2.4 4.6-1.6c0.1 2.7-1.4 9.5-4.6 1.6zm7.2-2.9 5.8-2c-0.3 9.8-2.4 9.9-5.8 2zm-35.8-22c2.8-3.4 6.1-5.4 11.1-5.5 7.2 0 14.6 4.5 14.6 12.5s-5.1 14.6-15 14.6c-5.5 0-9-2.2-10.7-3.8-2.6-2.8-3.4-6-3.4-9 0-2.9 1.4-6.3 3.4-8.8zm44.7-7.8c4.9 0.7 12 7.2 11.9 14.4-0.5 6.3-5.5 7.7-9 6-2-0.7-3.9-2.2-4.8-3.6l0.2-0.1c6.1 1.9 8.1-6.9 3.7-9.9-2.5-1.8-6.5-2.1-7.9 2.5-1.4-5.2 1-9.6 5.9-9.3zm1.4 25.1h0.3-0.3zm-0.1 1.2c1.3-0.2 3.6-1.1 6.4-1.2 0.4 7.6-2.6 11.9-4.2 5.9-1-2.4-2-3.9-2.2-4.7zm11.4 9c-0.8 0-0.3-3.2-3.3-8.7l-0.4-1.5c2.4-0.1 4.6-0.3 6.9 0.2 0.7 2.8-1.9 10-3.2 10z"/>
  <path class="cls-0" d="m87.5 31.8c-4.1 0-6.3 2.8-6.1 7.2 0.2 3.5 2.6 7.4 7 7.4 3.5 0 6.2-2.3 6.4-5.8 0.1-4.4-2.9-8.8-7.3-8.8z"/>
</svg>