<svg xmlns="http://www.w3.org/2000/svg" viewBox="0 0 220 40">
  <g transform="translate(0,0)">
    <svg viewBox="0 0 40 40" width="40" height="40">
      <path fill="#217ce7" d="m38.4 13c1-0.8-0.7-2.3-1.1-3 0.1-0.6-0.1-1.5-0.5-2.3-0.7-1.2-2.5-3-4.4-2.5l-0.3 0.1c-0.7-0.2-1.3-0.5-1.9-0.6-0.7-0.9-2.3-2.7-5.1-2.9-1.5-0.1-0.8 0.3-0.3 0.5 0.9 0.5 1.4 1.6 1.4 2.5-1.7 0.2-3.3 0.6-5.3 1.5-1.2-0.1-4.6-0.4-5.1-3.3-0.1-0.4-0.2-0.5-0.6 0.4-0.7 1.5 0.2 3.9 1.8 5.9l-0.9 1.2h-0.1l0.4-0.9c0.1-0.3-4.2 0.5-5 2.1v0.2c1.1-0.2 1.7-0.1 3 0.9-0.6 1.4-1 2.2-1 2.2l0.2-1.3c-0.3-0.1-4.4 1.7-4.1 3.2 1.1-0.4 2-0.4 2.9 0.5-0.2 0.5-0.6 2.3-0.8 2.3l0.1-1.5c-0.1-0.2-3.5 2-3.4 3.5 0 0.3 0.2-0.1 1.1-0.2 0.6-0.1 1 0 1.6 0.2 0.1 0.1-0.5 3-0.6 3v-1.5c0-0.5-0.1-0.3-0.5 0.1-0.7 0.6-2.5 2.1-2.3 3.2 0.1 0.2 0.8-0.6 1.7-0.5 0.2 0.1 0.5 0.2 0.8 0.5 0 0.6-0.5 2.9-0.5 2.8l0.1-1.9c-0.1-0.3-2.5 1.3-2.4 2.6 1-0.7 1.5-0.4 2.1 0-0.4 0.8-1.1 1.7-2.1 1.7-1.5-0.1-2.7-2.1-2.4-4.3 0.4-2.5 1.7-4.1 1.3-6.2-0.1-1-0.6-2.2-1.3-2.6-0.1-0.1 0.3 0.9 0.1 1.9-0.4 1.7-3 3.9-3.9 6.8-1 3.1-0.4 6.4 2.4 8.1 1.3 0.8 2.9 1.2 4.6 1.4 0.7 0.1 1.6 0 2.4-0.1 0-2.4 1.2-2.6 1.7-3.8 0.2 0 0.1 0.5-0.1 1-0.5 1.2-1.4 2.4-0.3 3.1 0.8 0.6 2.5 0.6 4 0.7 1.6 0.1 2.2 0.4 2.5 0.1l0.2-0.3 1.3 0.3c0.4 0.1 0.8 0.1 0.9-0.4 0.8 0.2 1.9 0.6 2-0.1 1.2 0.2 2.3 0.4 3.9 0.4 0.6 0 0.6-0.3 0.6-0.6 0.3 0.2 1 0.6 1.6 0.6 0.3 0 0.5-0.1 0.5-0.6 1.7-0.1 3.9 0.4 4.2 0.3 0.1 0 0.3-0.1 0.3-0.5l1 0.3c0.4 0.1 1 0.2 1-0.5 1 0 2.4 0.5 2.4-0.1 0.7 0.1 1.5 0.4 1.5-0.1 0.1-2.2-2.5-3.7-4.7-3.2l-0.1 0-0 0h-0.1l0.2-0.2c0.7-0.6 1.5-1.7 1.5-2.6 0.2-2-1.6-3.6-3.8-3.7 0.7 2.2 0.7 3.9 0.6 6.3 0.4 0.2 1 0.7 1 0.9-0.9-0.4-2.7-1.2-5.3-0.4 0.7-0.6 2.2-1 3.6-0.7 0.1-3.2-0.1-6-1.3-9.3-0.9-2.7 0.3-3.6 3-5.7 1.4-1 2-2.5 2.4-3.5 0.4 1.4 1.1 1.9 1.7-0.4m-17.1 20.8c0.7 0.6 0.6 1.9 0.6 2.1-0.4-0.1-1.4-0.9-1.8-1.6-0.5-0.8-0.1-1.4 1.2-0.5zm-1.3 2.2c-0.4-0.1-1.4-0.9-1.8-1.5-0.4-0.7-0.2-1.4 0.8-0.9 1 0.5 1.1 1.7 1 2.4zm-2.1 0.4c-0.5-0.2-2.8-1.5-2.2-2.3 0.5-0.6 1.9-0.5 2.2 1.1l0 1.3zm-3.7-2.6c0.4-0.5 2-1.9 4.4-1.8 0.8-0.6 1.4-1.9 1.1-3.5-0.3-1.5-1.2-2.9-2.8-2.9-1.5 0-2.8 1.1-3.6 2h-0.1c0.8-1.3 2-2.6 4-2.7 2 0 3.4 1.6 3.4 4.3-0.1 1.1-0.5 2.2-1 2.9 0.6 0.2 1.3 0.5 1.5 1.1-1.4-0.6-3.5-1-6.9 0.6zm8.2-1c0.3-0.3 1.3-0.8 2.8-0.8-0.3-2.3-1.3-5.5-2.2-8.2 0.2-0.4 2.4 3.3 3 7.1l0 1.2c0.6 0.1 1.8 0.7 2 1.2-1.4-0.7-2.8-1.2-5.7-0.5zm1.8 1c0.2-0.8 1.8-0.7 2.2 0.9 0.1 0.5 0.2 1.3 0 1.3-0.5-0.2-1.6-1-1.9-1.3-0.2-0.3-0.3-0.5-0.3-0.9zm4.4 2c-0.7-0.3-1.5-1-1.9-1.8-0.5-1.4 1.9-0.7 1.9 1.4 0 0.5 0.1 0.6 0 0.5zm2.8-2.6c0.9-0.2 1.7 0.7 1.7 2 0 0.6 0.1 0.7-0.2 0.5-0.4-0.1-1.1-0.7-1.6-1.1-0.5-0.5-0.5-1.2 0.1-1.4zm1.9 0.1c0.6-0.2 1.9 0.6 1.9 2.3-0.4 0.1-1.4-0.6-1.6-1-0.3-0.6-0.5-1.2-0.3-1.3zm2.4-0.3c0.7 0 1.5 0.8 1.7 1.8 0.2 0.8-0.7-0.1-1-0.4-0.5-0.5-1.3-1.4-0.7-1.4zm1.8 0.1c0.8 0.1 1.5 1.4 1.6 1.9 0 0.4-1.6-0.7-1.7-1.6 0-0.1 0-0.3 0.1-0.3zm-10.4-1.5c-0.1 0 1.4-2.7 2.1-5.2 0.6-2 0.7-3.9 0.8-3.8 0.3 1 0.3 2.9-0.6 5.6-0.8 2-2 3.4-2.3 3.5zm-6.5-19.1c0.3 0.3 0.8 0.6 1.2 0.8-0.8 1.6-1.2 0.6-1.2-0.8zm1.9 1.1l1.5 0.3c-0.5 1.7-1.2 1.8-1.5-0.3zm2.3 0.3l1.7-0.1c-0.2 1.3-0.9 3.1-1.7 0.1zm2.6-0.2l1.3-0.3c-0.1 0.9-0.6 2-1.3 0.3zm2.2-0.6l1.2-0.4c0 0.7-0.4 2.5-1.2 0.4zm1.9-0.8l1.5-0.5c-0.1 2.6-0.6 2.6-1.5 0.5zm-9.5-5.9c0.7-0.9 1.6-1.4 3-1.5 1.9 0 3.9 1.2 3.9 3.3s-1.4 3.9-4 3.9c-1.5 0-2.4-0.6-2.9-1-0.7-0.7-0.9-1.6-0.9-2.4 0-0.8 0.4-1.7 0.9-2.3zm11.9-2.1c1.3 0.2 3.2 1.9 3.2 3.8-0.1 1.7-1.5 2.1-2.4 1.6-0.5-0.2-1-0.6-1.3-1l0.1 0c1.6 0.5 2.2-1.8 1-2.6-0.7-0.5-1.7-0.6-2.1 0.7-0.4-1.4 0.3-2.6 1.6-2.5zm0.4 6.7h0.1-0.1zm0 0.3c0.3-0.1 1-0.3 1.7-0.3 0.1 2-0.7 3.2-1.1 1.6-0.3-0.6-0.5-1-0.6-1.3zm3 2.4c-0.2 0-0.1-0.9-0.9-2.3l-0.1-0.4c0.6 0 1.2-0.1 1.8 0.1 0.2 0.7-0.5 2.7-0.9 2.7z"/>
      <circle fill="#217ce7" cx="25" cy="23" r="4.5"/>
    </svg>
  </g>
  <text x="48" y="29" font-family="Inter, system-ui, sans-serif" font-size="22" font-weight="600" fill="#ffffff">Kyle</text>
</svg>
