<svg data-logo="logo" xmlns="http://www.w3.org/2000/svg" viewBox="0 0 119.68000030517578 41.315" width="119.68000030517578" height="41.315">
  <g id="logogram" transform="translate(0, 0.6574999999999989) rotate(0 20 20)">
    <path d="M33.724 36.5809C37.7426 32.5622 40.0003 27.1118 40.0003 21.4286C40.0003 15.7454 37.7426 10.2949 33.724 6.27629C29.7054 2.25765 24.2549 1.02188e-06 18.5717 0C12.8885 -1.02188e-06 7.43807 2.25764 3.41943 6.27628L10.4905 13.3473C11.6063 14.4631 13.4081 14.4074 14.8276 13.7181C15.9836 13.1568 17.2622 12.8571 18.5717 12.8571C20.845 12.8571 23.0252 13.7602 24.6326 15.3677C26.2401 16.9751 27.1431 19.1553 27.1431 21.4286C27.1431 22.7381 26.8435 24.0167 26.2822 25.1727C25.5929 26.5922 25.5372 28.394 26.6529 29.5098L33.724 36.5809Z" fill="#217ce7"/>
    <path d="M30 40H19.5098C17.9943 40 16.5408 39.398 15.4692 38.3263L1.67368 24.5308C0.60204 23.4592 0 22.0057 0 20.4902V10L30 40Z" fill="#5b9cea"/>
    <path d="M10.7143 39.9999H4.28571C1.91878 39.9999 0 38.0812 0 35.7142V29.2856L10.7143 39.9999Z" fill="#9ac2f3"/>
  </g>
  <g id="logotype" transform="translate(46, 0.5)">
    <path fill="#ffffff" d="M12.13 33L7.40 33L7.40 7.45L12.13 7.45L12.13 22.15L18.95 14.80L25.67 14.80L17.09 23.27L25.71 33L19.44 33L12.13 24.35L12.13 33ZM29.59 40.31L29.59 40.31Q28.89 40.31 28.02 40.25Q27.14 40.17 26.44 39.97L26.44 39.97L27.14 35.45Q28.12 35.70 29.28 35.70L29.28 35.70Q30.64 35.70 31.52 34.91Q32.39 34.12 32.77 32.93L32.77 32.93L33.02 32.16L25.81 14.80L31.52 14.80L35.05 25.20Q35.54 26.59 35.82 28.10L35.82 28.10Q36.10 26.59 36.59 25.20L36.59 25.20L40.13 14.80L45.73 14.80L37.68 34.16Q36.52 36.92 34.66 38.62Q32.81 40.31 29.59 40.31ZM51.33 33L46.60 33L46.60 7.45L51.33 7.45L51.33 33ZM62.84 33.45L62.84 33.45Q60.04 33.45 57.91 32.16Q55.77 30.86 54.60 28.71Q53.43 26.56 53.43 23.93L53.43 23.93Q53.43 21.31 54.65 19.12Q55.88 16.93 57.99 15.64Q60.11 14.34 62.84 14.34L62.84 14.34Q65.57 14.34 67.65 15.64Q69.73 16.93 70.91 19.12Q72.08 21.31 72.08 23.93L72.08 23.93Q72.08 24.32 72.05 24.74Q72.01 25.16 71.94 25.61L71.94 25.61L58.33 25.61Q58.71 27.23 59.88 28.24Q61.05 29.25 62.84 29.25L62.84 29.25Q64.38 29.25 65.52 28.55Q66.66 27.86 67.28 26.80L67.28 26.80L70.96 29.57Q69.88 31.29 67.70 32.37Q65.53 33.45 62.84 33.45ZM62.77 18.41L62.77 18.41Q61.09 18.41 59.90 19.42Q58.71 20.43 58.33 22.08L58.33 22.08L67.32 22.08Q66.94 20.57 65.73 19.49Q64.52 18.41 62.77 18.41Z"/>
  </g>
</svg>
